<?xml version="1.0" standalone="no"?><!DOCTYPE svg PUBLIC "-//W3C//DTD SVG 1.1//EN" "http://www.w3.org/Graphics/SVG/1.1/DTD/svg11.dtd"><svg class="icon" width="200px" height="200.00px" viewBox="0 0 1024 1024" version="1.1" xmlns="http://www.w3.org/2000/svg"><path d="M445.564915 910.608463c-6.643304 0-13.287631-3.321652-16.609283-3.321651-9.964956-6.643304-16.609283-19.930935-16.609283-29.894868v-288.991903L120.033817 166.538991c-6.643304-9.964956-9.964956-23.251563-3.321652-36.539195 6.644327-9.964956 16.609283-16.609283 29.895891-16.609283h730.782865c13.287631 0 23.251563 6.643304 29.894867 16.609283 6.644327 9.964956 3.321652 23.251563-3.321652 33.217543L611.652628 588.400041v222.556818c0 13.287631-6.644327 23.251563-19.930935 29.895891L458.852546 907.286812c-3.321652 3.321652-6.643304 3.321652-13.287631 3.321651z" /></svg>